<svg width="40" height="40" viewBox="0 0 40 57" fill="none" xmlns="http://www.w3.org/2000/svg">
<path d="M2.45508 42.5684H19.8954H37.3357" stroke="#7EB693" stroke-width="2" stroke-miterlimit="10"/>
<path d="M6.39551 49L19.8955 49L33.3955 49" stroke="#7EB693" stroke-width="2" stroke-miterlimit="10"/>
<path d="M19.3955 2L19.3955 9L19.3955 16" stroke="#7EB693" stroke-width="2" stroke-miterlimit="10"/>
<path d="M19.4702 15.2842V41.7158" stroke="#7EB693" stroke-width="2" stroke-miterlimit="10"/>
<path d="M30.5299 5.05273L19.4702 16.1369" stroke="#7EB693" stroke-width="2" stroke-miterlimit="10"/>
<path d="M34.7836 9.31592L19.4702 24.6633" stroke="#7EB693" stroke-width="2" stroke-miterlimit="10"/>
<path d="M37.3359 16.1367L19.4702 33.1893" stroke="#7EB693" stroke-width="2" stroke-miterlimit="10"/>
<path d="M38.1866 23.8105L19.4702 42.5684" stroke="#7EB693" stroke-width="2" stroke-miterlimit="10"/>
<path d="M38.1865 32.3369L27.9775 42.5685" stroke="#7EB693" stroke-width="2" stroke-miterlimit="10"/>
<path d="M1.60449 32.3369L11.8134 42.5685" stroke="#7EB693" stroke-width="2" stroke-miterlimit="10"/>
<path d="M9.26123 5.05273L19.4702 16.1369" stroke="#7EB693" stroke-width="2" stroke-miterlimit="10"/>
<path d="M5.00732 9.31592L19.47 24.6633" stroke="#7EB693" stroke-width="2" stroke-miterlimit="10"/>
<path d="M2.45508 15.2842L19.47 33.1894" stroke="#7EB693" stroke-width="2" stroke-miterlimit="10"/>
<path d="M1.60449 22.958L19.4702 41.7159" stroke="#7EB693" stroke-width="2" stroke-miterlimit="10"/>
<path d="M19.8955 55.3579C9.79468 55.3579 1.60449 46.9056 1.60449 36.4772V20.5227C1.60449 10.0963 9.79468 1.64209 19.8955 1.64209C29.9982 1.64209 38.1866 10.0963 38.1866 20.5227V36.4772C38.1884 46.9056 29.9982 55.3579 19.8955 55.3579Z" stroke="#7EB693" stroke-width="2" stroke-miterlimit="10"/>
</svg>